<?xml version="1.0" encoding="UTF-8" standalone="no"?><svg xmlns="http://www.w3.org/2000/svg" xmlns:xlink="http://www.w3.org/1999/xlink" contentStyleType="text/css" height="194px" preserveAspectRatio="none" style="width:668px;height:194px;background:#FFFFFF;" version="1.1" viewBox="0 0 668 194" width="668px" zoomAndPan="magnify"><defs/><g><rect fill="#F1F1F1" height="162.375" rx="5" ry="5" style="stroke:#F1F1F1;stroke-width:1.5;" width="178.25" x="10" y="18.5"/><text fill="#000000" font-family="sans-serif" font-size="14" font-weight="bold" lengthAdjust="spacing" textLength="68.9375" x="15" y="33.4951">firstName</text><text fill="#000000" font-family="sans-serif" font-size="14" lengthAdjust="spacing" textLength="30" x="138.25" y="33.4951">John</text><line style="stroke:#000000;stroke-width:1.0;" x1="133.25" x2="133.25" y1="18.5" y2="38.7969"/><line style="stroke:#000000;stroke-width:1.0;" x1="10" x2="188.25" y1="38.7969" y2="38.7969"/><text fill="#000000" font-family="sans-serif" font-size="14" font-weight="bold" lengthAdjust="spacing" textLength="67.5" x="15" y="53.792">lastName</text><text fill="#000000" font-family="sans-serif" font-size="14" lengthAdjust="spacing" textLength="39" x="138.25" y="53.792">Smith</text><line style="stroke:#000000;stroke-width:1.0;" x1="133.25" x2="133.25" y1="38.7969" y2="59.0938"/><line style="stroke:#000000;stroke-width:1.0;" x1="10" x2="188.25" y1="59.0938" y2="59.0938"/><text fill="#000000" font-family="sans-serif" font-size="14" font-weight="bold" lengthAdjust="spacing" textLength="45.0625" x="15" y="74.0889">isAlive</text><text fill="#000000" font-family="sans-serif" font-size="14" lengthAdjust="spacing" textLength="45" x="138.25" y="74.0889">☑ true</text><line style="stroke:#000000;stroke-width:1.0;" x1="133.25" x2="133.25" y1="59.0938" y2="79.3906"/><line style="stroke:#000000;stroke-width:1.0;" x1="10" x2="188.25" y1="79.3906" y2="79.3906"/><text fill="#000000" font-family="sans-serif" font-size="14" font-weight="bold" lengthAdjust="spacing" textLength="27.3125" x="15" y="94.3857">age</text><text fill="#000000" font-family="sans-serif" font-size="14" lengthAdjust="spacing" textLength="18" x="138.25" y="94.3857">27</text><line style="stroke:#000000;stroke-width:1.0;" x1="133.25" x2="133.25" y1="79.3906" y2="99.6875"/><line style="stroke:#000000;stroke-width:1.0;" x1="10" x2="188.25" y1="99.6875" y2="99.6875"/><text fill="#000000" font-family="sans-serif" font-size="14" font-weight="bold" lengthAdjust="spacing" textLength="59.0625" x="15" y="114.6826">address</text><text fill="#000000" font-family="sans-serif" font-size="14" lengthAdjust="spacing" textLength="12" x="138.25" y="114.6826">   </text><line style="stroke:#000000;stroke-width:1.0;" x1="133.25" x2="133.25" y1="99.6875" y2="119.9844"/><line style="stroke:#000000;stroke-width:1.0;" x1="10" x2="188.25" y1="119.9844" y2="119.9844"/><text fill="#000000" font-family="sans-serif" font-size="14" font-weight="bold" lengthAdjust="spacing" textLength="113.25" x="15" y="134.9795">phoneNumbers</text><text fill="#000000" font-family="sans-serif" font-size="14" lengthAdjust="spacing" textLength="12" x="138.25" y="134.9795">   </text><line style="stroke:#000000;stroke-width:1.0;" x1="133.25" x2="133.25" y1="119.9844" y2="140.2813"/><line style="stroke:#000000;stroke-width:1.0;" x1="10" x2="188.25" y1="140.2813" y2="140.2813"/><text fill="#000000" font-family="sans-serif" font-size="14" font-weight="bold" lengthAdjust="spacing" textLength="58.5" x="15" y="155.2764">children</text><text fill="#000000" font-family="sans-serif" font-size="14" lengthAdjust="spacing" textLength="12" x="138.25" y="155.2764">   </text><line style="stroke:#000000;stroke-width:1.0;" x1="133.25" x2="133.25" y1="140.2813" y2="160.5781"/><line style="stroke:#000000;stroke-width:1.0;" x1="10" x2="188.25" y1="160.5781" y2="160.5781"/><text fill="#000000" font-family="sans-serif" font-size="14" font-weight="bold" lengthAdjust="spacing" textLength="54.625" x="15" y="175.5732">spouse</text><text fill="#000000" font-family="sans-serif" font-size="14" lengthAdjust="spacing" textLength="8" x="138.25" y="175.5732">␀</text><line style="stroke:#000000;stroke-width:1.0;" x1="133.25" x2="133.25" y1="160.5781" y2="180.875"/><rect fill="none" height="162.375" rx="5" ry="5" style="stroke:#000000;stroke-width:1.5;" width="178.25" x="10" y="18.5"/><rect fill="#F1F1F1" height="81.1875" rx="5" ry="5" style="stroke:#F1F1F1;stroke-width:1.5;" width="218.6875" x="225" y="10"/><text fill="#000000" font-family="sans-serif" font-size="14" font-weight="bold" lengthAdjust="spacing" textLength="103.6875" x="230" y="24.9951">streetAddress</text><text fill="#000000" font-family="sans-serif" font-size="14" lengthAdjust="spacing" textLength="95" x="343.6875" y="24.9951">21 2nd Street</text><line style="stroke:#000000;stroke-width:1.0;" x1="338.6875" x2="338.6875" y1="10" y2="30.2969"/><line style="stroke:#000000;stroke-width:1.0;" x1="225" x2="443.6875" y1="30.2969" y2="30.2969"/><text fill="#000000" font-family="sans-serif" font-size="14" font-weight="bold" lengthAdjust="spacing" textLength="24.75" x="230" y="45.292">city</text><text fill="#000000" font-family="sans-serif" font-size="14" lengthAdjust="spacing" textLength="65" x="343.6875" y="45.292">New York</text><line style="stroke:#000000;stroke-width:1.0;" x1="338.6875" x2="338.6875" y1="30.2969" y2="50.5938"/><line style="stroke:#000000;stroke-width:1.0;" x1="225" x2="443.6875" y1="50.5938" y2="50.5938"/><text fill="#000000" font-family="sans-serif" font-size="14" font-weight="bold" lengthAdjust="spacing" textLength="37.1875" x="230" y="65.5889">state</text><text fill="#000000" font-family="sans-serif" font-size="14" lengthAdjust="spacing" textLength="19" x="343.6875" y="65.5889">NY</text><line style="stroke:#000000;stroke-width:1.0;" x1="338.6875" x2="338.6875" y1="50.5938" y2="70.8906"/><line style="stroke:#000000;stroke-width:1.0;" x1="225" x2="443.6875" y1="70.8906" y2="70.8906"/><text fill="#000000" font-family="sans-serif" font-size="14" font-weight="bold" lengthAdjust="spacing" textLength="83.375" x="230" y="85.8857">postalCode</text><text fill="#000000" font-family="sans-serif" font-size="14" lengthAdjust="spacing" textLength="86" x="343.6875" y="85.8857">10021-3100</text><line style="stroke:#000000;stroke-width:1.0;" x1="338.6875" x2="338.6875" y1="70.8906" y2="91.1875"/><rect fill="none" height="81.1875" rx="5" ry="5" style="stroke:#000000;stroke-width:1.5;" width="218.6875" x="225" y="10"/><rect fill="#F1F1F1" height="40.5938" rx="5" ry="5" style="stroke:#F1F1F1;stroke-width:1.5;" width="22" x="322.5" y="109"/><text fill="#000000" font-family="sans-serif" font-size="14" lengthAdjust="spacing" textLength="12" x="327.5" y="123.9951">   </text><line style="stroke:#000000;stroke-width:1.0;" x1="322.5" x2="344.5" y1="129.2969" y2="129.2969"/><text fill="#000000" font-family="sans-serif" font-size="14" lengthAdjust="spacing" textLength="12" x="327.5" y="144.292">   </text><rect fill="none" height="40.5938" rx="5" ry="5" style="stroke:#000000;stroke-width:1.5;" width="22" x="322.5" y="109"/><rect fill="#F1F1F1" height="40.5938" rx="5" ry="5" style="stroke:#F1F1F1;stroke-width:1.5;" width="175.625" x="481" y="79"/><text fill="#000000" font-family="sans-serif" font-size="14" font-weight="bold" lengthAdjust="spacing" textLength="31.75" x="486" y="93.9951">type</text><text fill="#000000" font-family="sans-serif" font-size="14" lengthAdjust="spacing" textLength="40" x="552.625" y="93.9951">home</text><line style="stroke:#000000;stroke-width:1.0;" x1="547.625" x2="547.625" y1="79" y2="99.2969"/><line style="stroke:#000000;stroke-width:1.0;" x1="481" x2="656.625" y1="99.2969" y2="99.2969"/><text fill="#000000" font-family="sans-serif" font-size="14" font-weight="bold" lengthAdjust="spacing" textLength="56.625" x="486" y="114.292">number</text><text fill="#000000" font-family="sans-serif" font-size="14" lengthAdjust="spacing" textLength="99" x="552.625" y="114.292">212 555-1234</text><line style="stroke:#000000;stroke-width:1.0;" x1="547.625" x2="547.625" y1="99.2969" y2="119.5938"/><rect fill="none" height="40.5938" rx="5" ry="5" style="stroke:#000000;stroke-width:1.5;" width="175.625" x="481" y="79"/><rect fill="#F1F1F1" height="40.5938" rx="5" ry="5" style="stroke:#F1F1F1;stroke-width:1.5;" width="175.625" x="481" y="138"/><text fill="#000000" font-family="sans-serif" font-size="14" font-weight="bold" lengthAdjust="spacing" textLength="31.75" x="486" y="152.9951">type</text><text fill="#000000" font-family="sans-serif" font-size="14" lengthAdjust="spacing" textLength="37" x="552.625" y="152.9951">office</text><line style="stroke:#000000;stroke-width:1.0;" x1="547.625" x2="547.625" y1="138" y2="158.2969"/><line style="stroke:#000000;stroke-width:1.0;" x1="481" x2="656.625" y1="158.2969" y2="158.2969"/><text fill="#000000" font-family="sans-serif" font-size="14" font-weight="bold" lengthAdjust="spacing" textLength="56.625" x="486" y="173.292">number</text><text fill="#000000" font-family="sans-serif" font-size="14" lengthAdjust="spacing" textLength="99" x="552.625" y="173.292">646 555-4567</text><line style="stroke:#000000;stroke-width:1.0;" x1="547.625" x2="547.625" y1="158.2969" y2="178.5938"/><rect fill="none" height="40.5938" rx="5" ry="5" style="stroke:#000000;stroke-width:1.5;" width="175.625" x="481" y="138"/><rect fill="#F1F1F1" height="15" rx="5" ry="5" style="stroke:#F1F1F1;stroke-width:1.5;" width="30" x="322.5" y="168.5"/><rect fill="none" height="15" rx="5" ry="5" style="stroke:#000000;stroke-width:1.5;" width="30" x="322.5" y="168.5"/><path d="M176,109.5 L189,109.5 C194.8244,109.5 213.0066,102.8845 234.6174,94.0839 " fill="none" style="stroke:#000000;stroke-width:1.0;stroke-dasharray:3.0,3.0;"/><path d="M235.7888,96.9342 L236.7551,93.2054 L233.446,91.2337 L241.743,91.1554 L235.7888,96.9342 " fill="#000000" style="stroke:#000000;stroke-width:1.0;"/><ellipse cx="176" cy="109.5" fill="#000000" rx="3" ry="3" style="stroke:#000000;stroke-width:1.0;"/><path d="M335,118.5 L348,118.5 C389.3349,118.5 434.8679,115.1448 473.7715,111.2542 " fill="none" style="stroke:#000000;stroke-width:1.0;stroke-dasharray:3.0,3.0;"/><path d="M474.0852,114.3299 L476.0782,111.0189 L473.4577,108.1786 L481.4606,110.4698 L474.0852,114.3299 " fill="#000000" style="stroke:#000000;stroke-width:1.0;"/><ellipse cx="335" cy="118.5" fill="#000000" rx="3" ry="3" style="stroke:#000000;stroke-width:1.0;"/><path d="M335,139.5 L348,139.5 C389.3349,139.5 434.8679,142.8552 473.7715,146.7458 " fill="none" style="stroke:#000000;stroke-width:1.0;stroke-dasharray:3.0,3.0;"/><path d="M473.4577,149.8214 L476.0782,146.9811 L474.0852,143.6701 L481.4606,147.5302 L473.4577,149.8214 " fill="#000000" style="stroke:#000000;stroke-width:1.0;"/><ellipse cx="335" cy="139.5" fill="#000000" rx="3" ry="3" style="stroke:#000000;stroke-width:1.0;"/><path d="M176,129.5 L189,129.5 C234.1709,129.5 287.2572,129.5 314.9702,129.5 " fill="none" style="stroke:#000000;stroke-width:1.0;stroke-dasharray:3.0,3.0;"/><path d="M314.9702,132.5997 L317.2949,129.5 L314.9702,126.4003 L322.7193,129.5 L314.9702,132.5997 " fill="#000000" style="stroke:#000000;stroke-width:1.0;"/><ellipse cx="176" cy="129.5" fill="#000000" rx="3" ry="3" style="stroke:#000000;stroke-width:1.0;"/><path d="M176,149.5 L189,149.5 C205.6058,149.5 208.7689,155.9924 225,159.5 C256.3732,166.2799 293.3831,171.4685 315.2041,174.2436 " fill="none" style="stroke:#000000;stroke-width:1.0;stroke-dasharray:3.0,3.0;"/><path d="M314.8266,177.2741 L317.4769,174.5268 L315.5816,171.2132 L322.7801,175.1874 L314.8266,177.2741 " fill="#000000" style="stroke:#000000;stroke-width:1.0;"/><ellipse cx="176" cy="149.5" fill="#000000" rx="3" ry="3" style="stroke:#000000;stroke-width:1.0;"/><!--MD5=[fadba037c3604a4c20a814bec8bb2ace]
@startjson
{
  "firstName": "John",
  "lastName": "Smith",
  "isAlive": true,
  "age": 27,
  "address": {
    "streetAddress": "21 2nd Street",
    "city": "New York",
    "state": "NY",
    "postalCode": "10021-3100"
  },
  "phoneNumbers": [
    {
      "type": "home",
      "number": "212 555-1234"
    },
    {
      "type": "office",
      "number": "646 555-4567"
    }
  ],
  "children": [],
  "spouse": null
}
@endjson

PlantUML version 1.2022.5(Sat Apr 30 10:55:52 UTC 2022)
(GPL source distribution)
Java Runtime: OpenJDK Runtime Environment
JVM: OpenJDK 64-Bit Server VM
Default Encoding: ANSI_X3.4-1968
Language: en
Country: US
--></g></svg>