<?xml version="1.0" encoding="UTF-8" standalone="no"?>
<!DOCTYPE svg PUBLIC "-//W3C//DTD SVG 1.1//EN"
 "http://www.w3.org/Graphics/SVG/1.1/DTD/svg11.dtd">
<!-- Generated by graphviz version 3.0.0 (0)
 -->
<!-- Title: G Pages: 1 -->
<svg width="226pt" height="414pt"
 viewBox="0.00 0.00 226.00 414.00" xmlns="http://www.w3.org/2000/svg" xmlns:xlink="http://www.w3.org/1999/xlink">
<g id="graph0" class="graph" transform="scale(1 1) rotate(0) translate(4 410)">
<title>G</title>
<polygon fill="white" stroke="transparent" points="-4,4 -4,-410 222,-410 222,4 -4,4"/>
<g id="clust1" class="cluster">
<title>cluster_0</title>
<polygon fill="lightgrey" stroke="lightgrey" points="8,-71 8,-362 103,-362 103,-71 8,-71"/>
<text text-anchor="middle" x="55.5" y="-346.8" font-family="Times,serif" font-size="14.00">process #1</text>
</g>
<g id="clust2" class="cluster">
<title>cluster_1</title>
<polygon fill="none" stroke="blue" points="115,-71 115,-362 210,-362 210,-71 115,-71"/>
<text text-anchor="middle" x="162.5" y="-346.8" font-family="Times,serif" font-size="14.00">process #2</text>
</g>
<!-- a0 -->
<g id="node1" class="node">
<title>a0</title>
<ellipse fill="white" stroke="white" cx="66" cy="-313" rx="27" ry="18"/>
<text text-anchor="middle" x="66" y="-309.3" font-family="Times,serif" font-size="14.00">a0</text>
</g>
<!-- a1 -->
<g id="node2" class="node">
<title>a1</title>
<ellipse fill="white" stroke="white" cx="66" cy="-241" rx="27" ry="18"/>
<text text-anchor="middle" x="66" y="-237.3" font-family="Times,serif" font-size="14.00">a1</text>
</g>
<!-- a0&#45;&gt;a1 -->
<g id="edge1" class="edge">
<title>a0&#45;&gt;a1</title>
<path fill="none" stroke="black" d="M66,-294.7C66,-286.98 66,-277.71 66,-269.11"/>
<polygon fill="black" stroke="black" points="69.5,-269.1 66,-259.1 62.5,-269.1 69.5,-269.1"/>
</g>
<!-- a2 -->
<g id="node3" class="node">
<title>a2</title>
<ellipse fill="white" stroke="white" cx="65" cy="-169" rx="27" ry="18"/>
<text text-anchor="middle" x="65" y="-165.3" font-family="Times,serif" font-size="14.00">a2</text>
</g>
<!-- a1&#45;&gt;a2 -->
<g id="edge2" class="edge">
<title>a1&#45;&gt;a2</title>
<path fill="none" stroke="black" d="M65.75,-222.7C65.64,-214.98 65.51,-205.71 65.39,-197.11"/>
<polygon fill="black" stroke="black" points="68.89,-197.05 65.24,-187.1 61.89,-197.15 68.89,-197.05"/>
</g>
<!-- b3 -->
<g id="node8" class="node">
<title>b3</title>
<ellipse fill="lightgrey" stroke="black" cx="150" cy="-97" rx="27" ry="18"/>
<text text-anchor="middle" x="150" y="-93.3" font-family="Times,serif" font-size="14.00">b3</text>
</g>
<!-- a1&#45;&gt;b3 -->
<g id="edge9" class="edge">
<title>a1&#45;&gt;b3</title>
<path fill="none" stroke="black" d="M76.75,-224.44C83.85,-213.99 93.25,-199.84 101,-187 113.7,-165.98 127.08,-141.5 136.64,-123.54"/>
<polygon fill="black" stroke="black" points="139.95,-124.78 141.53,-114.3 133.76,-121.5 139.95,-124.78"/>
</g>
<!-- a3 -->
<g id="node4" class="node">
<title>a3</title>
<ellipse fill="white" stroke="white" cx="66" cy="-97" rx="27" ry="18"/>
<text text-anchor="middle" x="66" y="-93.3" font-family="Times,serif" font-size="14.00">a3</text>
</g>
<!-- a2&#45;&gt;a3 -->
<g id="edge3" class="edge">
<title>a2&#45;&gt;a3</title>
<path fill="none" stroke="black" d="M65.25,-150.7C65.36,-142.98 65.49,-133.71 65.61,-125.11"/>
<polygon fill="black" stroke="black" points="69.11,-125.15 65.76,-115.1 62.11,-125.05 69.11,-125.15"/>
</g>
<!-- a3&#45;&gt;a0 -->
<g id="edge11" class="edge">
<title>a3&#45;&gt;a0</title>
<path fill="none" stroke="black" d="M51.87,-112.86C43.44,-122.81 33.51,-136.66 29,-151 14.6,-196.79 15.57,-213.22 30,-259 33.36,-269.66 39.63,-280.12 46.01,-288.89"/>
<polygon fill="black" stroke="black" points="43.43,-291.28 52.32,-297.05 48.97,-287 43.43,-291.28"/>
</g>
<!-- end -->
<g id="node10" class="node">
<title>end</title>
<polygon fill="none" stroke="black" points="129.5,-43 86.5,-43 86.5,0 129.5,0 129.5,-43"/>
<polyline fill="none" stroke="black" points="98.5,-43 86.5,-31 "/>
<polyline fill="none" stroke="black" points="86.5,-12 98.5,0 "/>
<polyline fill="none" stroke="black" points="117.5,0 129.5,-12 "/>
<polyline fill="none" stroke="black" points="129.5,-31 117.5,-43 "/>
<text text-anchor="middle" x="108" y="-17.8" font-family="Times,serif" font-size="14.00">end</text>
</g>
<!-- a3&#45;&gt;end -->
<g id="edge12" class="edge">
<title>a3&#45;&gt;end</title>
<path fill="none" stroke="black" d="M75.11,-80.05C79.79,-71.86 85.65,-61.61 91.12,-52.05"/>
<polygon fill="black" stroke="black" points="94.27,-53.59 96.19,-43.17 88.19,-50.12 94.27,-53.59"/>
</g>
<!-- b0 -->
<g id="node5" class="node">
<title>b0</title>
<ellipse fill="lightgrey" stroke="black" cx="150" cy="-313" rx="27" ry="18"/>
<text text-anchor="middle" x="150" y="-309.3" font-family="Times,serif" font-size="14.00">b0</text>
</g>
<!-- b1 -->
<g id="node6" class="node">
<title>b1</title>
<ellipse fill="lightgrey" stroke="black" cx="162" cy="-241" rx="27" ry="18"/>
<text text-anchor="middle" x="162" y="-237.3" font-family="Times,serif" font-size="14.00">b1</text>
</g>
<!-- b0&#45;&gt;b1 -->
<g id="edge4" class="edge">
<title>b0&#45;&gt;b1</title>
<path fill="none" stroke="black" d="M152.9,-295.05C154.23,-287.35 155.82,-278.03 157.31,-269.36"/>
<polygon fill="black" stroke="black" points="160.8,-269.72 159.04,-259.28 153.9,-268.54 160.8,-269.72"/>
</g>
<!-- b2 -->
<g id="node7" class="node">
<title>b2</title>
<ellipse fill="lightgrey" stroke="black" cx="175" cy="-169" rx="27" ry="18"/>
<text text-anchor="middle" x="175" y="-165.3" font-family="Times,serif" font-size="14.00">b2</text>
</g>
<!-- b1&#45;&gt;b2 -->
<g id="edge5" class="edge">
<title>b1&#45;&gt;b2</title>
<path fill="none" stroke="black" d="M165.15,-223.05C166.58,-215.35 168.31,-206.03 169.92,-197.36"/>
<polygon fill="black" stroke="black" points="173.41,-197.75 171.79,-187.28 166.52,-196.47 173.41,-197.75"/>
</g>
<!-- b2&#45;&gt;a3 -->
<g id="edge10" class="edge">
<title>b2&#45;&gt;a3</title>
<path fill="none" stroke="black" d="M156.01,-155.81C138.66,-144.67 112.81,-128.06 93.26,-115.5"/>
<polygon fill="black" stroke="black" points="95.07,-112.51 84.77,-110.05 91.29,-118.4 95.07,-112.51"/>
</g>
<!-- b2&#45;&gt;b3 -->
<g id="edge6" class="edge">
<title>b2&#45;&gt;b3</title>
<path fill="none" stroke="black" d="M169.08,-151.41C166.22,-143.42 162.73,-133.64 159.52,-124.64"/>
<polygon fill="black" stroke="black" points="162.72,-123.2 156.06,-114.96 156.12,-125.55 162.72,-123.2"/>
</g>
<!-- b3&#45;&gt;end -->
<g id="edge13" class="edge">
<title>b3&#45;&gt;end</title>
<path fill="none" stroke="black" d="M140.89,-80.05C136.21,-71.86 130.35,-61.61 124.88,-52.05"/>
<polygon fill="black" stroke="black" points="127.81,-50.12 119.81,-43.17 121.73,-53.59 127.81,-50.12"/>
</g>
<!-- start -->
<g id="node9" class="node">
<title>start</title>
<polygon fill="none" stroke="black" points="108,-406 62.92,-388 108,-370 153.08,-388 108,-406"/>
<polyline fill="none" stroke="black" points="74.07,-392.45 74.07,-383.55 "/>
<polyline fill="none" stroke="black" points="96.86,-374.45 119.14,-374.45 "/>
<polyline fill="none" stroke="black" points="141.93,-383.55 141.93,-392.45 "/>
<polyline fill="none" stroke="black" points="119.14,-401.55 96.86,-401.55 "/>
<text text-anchor="middle" x="108" y="-384.3" font-family="Times,serif" font-size="14.00">start</text>
</g>
<!-- start&#45;&gt;a0 -->
<g id="edge7" class="edge">
<title>start&#45;&gt;a0</title>
<path fill="none" stroke="black" d="M99.9,-372.92C94.33,-363.25 86.79,-350.14 80.23,-338.74"/>
<polygon fill="black" stroke="black" points="83.26,-336.99 75.24,-330.07 77.2,-340.48 83.26,-336.99"/>
</g>
<!-- start&#45;&gt;b0 -->
<g id="edge8" class="edge">
<title>start&#45;&gt;b0</title>
<path fill="none" stroke="black" d="M116.1,-372.92C121.67,-363.25 129.21,-350.14 135.77,-338.74"/>
<polygon fill="black" stroke="black" points="138.8,-340.48 140.76,-330.07 132.74,-336.99 138.8,-340.48"/>
</g>
</g>
</svg>
